<svg width="57" height="55" viewBox="0 0 57 55" fill="none" xmlns="http://www.w3.org/2000/svg">
<g filter="url(#filter0_d_1_69)">
<rect x="10" y="2" width="37" height="34.8417" rx="4.625" fill="white"/>
<path fill-rule="evenodd" clip-rule="evenodd" d="M28.4937 13.2256C26.6443 11.0635 23.5603 10.4819 21.2431 12.4618C18.9259 14.4416 18.5997 17.7518 20.4194 20.0934C21.7938 21.862 25.6984 25.4126 27.5269 27.0443C27.863 27.3442 28.0311 27.4942 28.2279 27.5532C28.3987 27.6045 28.5886 27.6045 28.7594 27.5532C28.9562 27.4942 29.1243 27.3442 29.4604 27.0443C31.2889 25.4126 35.1935 21.862 36.5679 20.0934C38.3876 17.7518 38.1012 14.4208 35.7442 12.4618C33.3872 10.5027 30.3431 11.0635 28.4937 13.2256Z" stroke="black" stroke-width="1.85" stroke-linecap="round" stroke-linejoin="round"/>
</g>
<defs>
<filter id="filter0_d_1_69" x="0" y="0" width="57" height="54.8417" filterUnits="userSpaceOnUse" color-interpolation-filters="sRGB">
<feFlood flood-opacity="0" result="BackgroundImageFix"/>
<feColorMatrix in="SourceAlpha" type="matrix" values="0 0 0 0 0 0 0 0 0 0 0 0 0 0 0 0 0 0 127 0" result="hardAlpha"/>
<feOffset dy="8"/>
<feGaussianBlur stdDeviation="5"/>
<feComposite in2="hardAlpha" operator="out"/>
<feColorMatrix type="matrix" values="0 0 0 0 0.320833 0 0 0 0 0.320833 0 0 0 0 0.320833 0 0 0 0.25 0"/>
<feBlend mode="normal" in2="BackgroundImageFix" result="effect1_dropShadow_1_69"/>
<feBlend mode="normal" in="SourceGraphic" in2="effect1_dropShadow_1_69" result="shape"/>
</filter>
</defs>
</svg>
