<svg width="390" height="79" viewBox="0 0 390 79" fill="none" xmlns="http://www.w3.org/2000/svg">
<mask id="path-1-inside-1_1_81" fill="white">
<path d="M0 0H390V79H0V0Z"/>
</mask>
<path d="M0 0H390V79H0V0Z" fill="white"/>
<path d="M48.5 37H56.5M51.5177 22.764L44.7354 28.0392C44.282 28.3918 44.0553 28.5681 43.892 28.7889C43.7474 28.9845 43.6396 29.2048 43.574 29.4391C43.5 29.7035 43.5 29.9907 43.5 30.5651V37.8C43.5 38.9201 43.5 39.4802 43.718 39.908C43.9097 40.2843 44.2157 40.5903 44.592 40.782C45.0198 41 45.5799 41 46.7 41H58.3C59.4201 41 59.9802 41 60.408 40.782C60.7843 40.5903 61.0903 40.2843 61.282 39.908C61.5 39.4802 61.5 38.9201 61.5 37.8V30.5651C61.5 29.9907 61.5 29.7035 61.426 29.4391C61.3604 29.2048 61.2526 28.9845 61.108 28.7889C60.9447 28.5681 60.718 28.3918 60.2646 28.0392L53.4823 22.764C53.131 22.4908 52.9553 22.3542 52.7613 22.3016C52.5902 22.2553 52.4098 22.2553 52.2387 22.3016C52.0447 22.3542 51.869 22.4908 51.5177 22.764Z" stroke="black" stroke-width="2" stroke-linecap="round" stroke-linejoin="round"/>
<path d="M37.0568 56V47.2727H38.1136V51.1591H42.767V47.2727H43.8239V56H42.767V52.0966H38.1136V56H37.0568ZM48.2224 56.1364C47.6314 56.1364 47.113 55.9957 46.667 55.7145C46.2238 55.4332 45.8772 55.0398 45.6272 54.5341C45.38 54.0284 45.2564 53.4375 45.2564 52.7614C45.2564 52.0795 45.38 51.4844 45.6272 50.9759C45.8772 50.4673 46.2238 50.0724 46.667 49.7912C47.113 49.5099 47.6314 49.3693 48.2224 49.3693C48.8133 49.3693 49.3303 49.5099 49.7735 49.7912C50.2195 50.0724 50.5661 50.4673 50.8133 50.9759C51.0633 51.4844 51.1883 52.0795 51.1883 52.7614C51.1883 53.4375 51.0633 54.0284 50.8133 54.5341C50.5661 55.0398 50.2195 55.4332 49.7735 55.7145C49.3303 55.9957 48.8133 56.1364 48.2224 56.1364ZM48.2224 55.233C48.6712 55.233 49.0405 55.1179 49.3303 54.8878C49.6201 54.6577 49.8346 54.3551 49.9738 53.9801C50.113 53.6051 50.1826 53.1989 50.1826 52.7614C50.1826 52.3239 50.113 51.9162 49.9738 51.5384C49.8346 51.1605 49.6201 50.8551 49.3303 50.6222C49.0405 50.3892 48.6712 50.2727 48.2224 50.2727C47.7735 50.2727 47.4042 50.3892 47.1144 50.6222C46.8246 50.8551 46.6101 51.1605 46.4709 51.5384C46.3317 51.9162 46.2621 52.3239 46.2621 52.7614C46.2621 53.1989 46.3317 53.6051 46.4709 53.9801C46.6101 54.3551 46.8246 54.6577 47.1144 54.8878C47.4042 55.1179 47.7735 55.233 48.2224 55.233ZM52.4834 56V49.4545H53.455V50.4773H53.5402C53.6766 50.1278 53.8968 49.8565 54.2008 49.6634C54.5047 49.4673 54.8698 49.3693 55.2959 49.3693C55.7277 49.3693 56.0871 49.4673 56.374 49.6634C56.6638 49.8565 56.8897 50.1278 57.0516 50.4773H57.1198C57.2874 50.1392 57.5388 49.8707 57.874 49.6719C58.2093 49.4702 58.6113 49.3693 59.08 49.3693C59.6652 49.3693 60.1439 49.5526 60.5161 49.919C60.8883 50.2827 61.0743 50.8494 61.0743 51.6193V56H60.0687V51.6193C60.0687 51.1364 59.9365 50.7912 59.6723 50.5838C59.4081 50.3764 59.0971 50.2727 58.7391 50.2727C58.2789 50.2727 57.9223 50.4119 57.6695 50.6903C57.4167 50.9659 57.2902 51.3153 57.2902 51.7386V56H56.2675V51.517C56.2675 51.1449 56.1468 50.8452 55.9053 50.6179C55.6638 50.3878 55.3527 50.2727 54.9721 50.2727C54.7107 50.2727 54.4664 50.3423 54.2391 50.4815C54.0147 50.6207 53.8329 50.8139 53.6937 51.0611C53.5573 51.3054 53.4891 51.5881 53.4891 51.9091V56H52.4834ZM65.4174 56.1364C64.7867 56.1364 64.2427 55.9972 63.7853 55.7188C63.3308 55.4375 62.9799 55.0455 62.7328 54.5426C62.4885 54.0369 62.3663 53.4489 62.3663 52.7784C62.3663 52.108 62.4885 51.517 62.7328 51.0057C62.9799 50.4915 63.3237 50.0909 63.764 49.804C64.2072 49.5142 64.7242 49.3693 65.3152 49.3693C65.6561 49.3693 65.9927 49.4261 66.3251 49.5398C66.6575 49.6534 66.96 49.8381 67.2328 50.0938C67.5055 50.3466 67.7228 50.6818 67.8848 51.0994C68.0467 51.517 68.1277 52.0312 68.1277 52.642V53.0682H63.0822V52.1989H67.1049C67.1049 51.8295 67.0311 51.5 66.8833 51.2102C66.7385 50.9205 66.5311 50.6918 66.2612 50.5241C65.9941 50.3565 65.6788 50.2727 65.3152 50.2727C64.9146 50.2727 64.568 50.3722 64.2754 50.571C63.9856 50.767 63.7626 51.0227 63.6064 51.3381C63.4501 51.6534 63.372 51.9915 63.372 52.3523V52.9318C63.372 53.4261 63.4572 53.8452 63.6277 54.1889C63.801 54.5298 64.041 54.7898 64.3478 54.9688C64.6546 55.1449 65.0112 55.233 65.4174 55.233C65.6816 55.233 65.9203 55.196 66.1333 55.1222C66.3492 55.0455 66.5353 54.9318 66.6916 54.7812C66.8478 54.6278 66.9686 54.4375 67.0538 54.2102L68.0254 54.483C67.9231 54.8125 67.7512 55.1023 67.5098 55.3523C67.2683 55.5994 66.97 55.7926 66.6149 55.9318C66.2598 56.0682 65.8606 56.1364 65.4174 56.1364Z" fill="#8D7B7B"/>
<path fill-rule="evenodd" clip-rule="evenodd" d="M146.493 25.1358C144.494 22.7984 141.16 22.1696 138.655 24.31C136.15 26.4504 135.797 30.029 137.764 32.5604C139.25 34.4724 143.471 38.311 145.448 40.0749C145.811 40.3991 145.993 40.5613 146.206 40.6251C146.391 40.6805 146.596 40.6805 146.78 40.6251C146.993 40.5613 147.175 40.3991 147.538 40.0749C149.515 38.311 153.736 34.4724 155.222 32.5604C157.189 30.029 156.88 26.4279 154.332 24.31C151.783 22.1922 148.493 22.7984 146.493 25.1358Z" stroke="black" stroke-opacity="0.6" stroke-width="2" stroke-linecap="round" stroke-linejoin="round"/>
<path d="M134.83 49.4545C134.778 49.0227 134.571 48.6875 134.207 48.4489C133.844 48.2102 133.398 48.0909 132.869 48.0909C132.483 48.0909 132.145 48.1534 131.855 48.2784C131.568 48.4034 131.344 48.5753 131.182 48.794C131.023 49.0128 130.943 49.2614 130.943 49.5398C130.943 49.7727 130.999 49.973 131.109 50.1406C131.223 50.3054 131.368 50.4432 131.544 50.554C131.72 50.6619 131.905 50.7514 132.098 50.8224C132.291 50.8906 132.469 50.946 132.631 50.9886L133.517 51.2273C133.744 51.2869 133.997 51.3693 134.276 51.4744C134.557 51.5795 134.825 51.723 135.081 51.9048C135.339 52.0838 135.553 52.3139 135.72 52.5952C135.888 52.8764 135.972 53.2216 135.972 53.6307C135.972 54.1023 135.848 54.5284 135.601 54.9091C135.357 55.2898 134.999 55.5923 134.527 55.8168C134.058 56.0412 133.489 56.1534 132.818 56.1534C132.193 56.1534 131.652 56.0526 131.195 55.8509C130.74 55.6491 130.382 55.3679 130.121 55.0071C129.862 54.6463 129.716 54.2273 129.682 53.75H130.773C130.801 54.0795 130.912 54.3523 131.105 54.5682C131.301 54.7812 131.548 54.9403 131.847 55.0455C132.148 55.1477 132.472 55.1989 132.818 55.1989C133.222 55.1989 133.584 55.1335 133.905 55.0028C134.226 54.8693 134.48 54.6847 134.668 54.4489C134.855 54.2102 134.949 53.9318 134.949 53.6136C134.949 53.3239 134.868 53.0881 134.706 52.9062C134.544 52.7244 134.331 52.5767 134.067 52.4631C133.803 52.3494 133.517 52.25 133.21 52.1648L132.136 51.858C131.455 51.6619 130.915 51.3821 130.517 51.0185C130.119 50.6548 129.92 50.179 129.92 49.5909C129.92 49.1023 130.053 48.6761 130.317 48.3125C130.584 47.946 130.942 47.6619 131.391 47.4602C131.842 47.2557 132.347 47.1534 132.903 47.1534C133.466 47.1534 133.966 47.2543 134.403 47.456C134.841 47.6548 135.188 47.9276 135.443 48.2741C135.702 48.6207 135.838 49.0142 135.852 49.4545H134.83ZM139.259 56.1534C138.844 56.1534 138.468 56.0753 138.13 55.919C137.792 55.7599 137.523 55.5312 137.324 55.233C137.125 54.9318 137.026 54.5682 137.026 54.142C137.026 53.767 137.1 53.4631 137.248 53.2301C137.395 52.9943 137.593 52.8097 137.84 52.6761C138.087 52.5426 138.36 52.4432 138.658 52.3778C138.959 52.3097 139.262 52.2557 139.566 52.2159C139.963 52.1648 140.286 52.1264 140.533 52.1009C140.783 52.0724 140.965 52.0256 141.079 51.9602C141.195 51.8949 141.253 51.7812 141.253 51.6193V51.5852C141.253 51.1648 141.138 50.8381 140.908 50.6051C140.681 50.3722 140.336 50.2557 139.873 50.2557C139.392 50.2557 139.016 50.3608 138.743 50.571C138.471 50.7812 138.279 51.0057 138.168 51.2443L137.213 50.9034C137.384 50.5057 137.611 50.196 137.895 49.9744C138.182 49.75 138.495 49.5937 138.833 49.5057C139.174 49.4148 139.509 49.3693 139.838 49.3693C140.049 49.3693 140.29 49.3949 140.563 49.446C140.838 49.4943 141.104 49.5952 141.36 49.7486C141.618 49.902 141.833 50.1335 142.003 50.4432C142.174 50.7528 142.259 51.1676 142.259 51.6875V56H141.253V55.1136H141.202C141.134 55.2557 141.02 55.4077 140.861 55.5696C140.702 55.7315 140.49 55.8693 140.226 55.983C139.962 56.0966 139.64 56.1534 139.259 56.1534ZM139.412 55.25C139.81 55.25 140.145 55.1719 140.418 55.0156C140.694 54.8594 140.901 54.6577 141.04 54.4105C141.182 54.1634 141.253 53.9034 141.253 53.6307V52.7102C141.211 52.7614 141.117 52.8082 140.972 52.8509C140.83 52.8906 140.665 52.9261 140.478 52.9574C140.293 52.9858 140.113 53.0114 139.936 53.0341C139.763 53.054 139.623 53.071 139.515 53.0852C139.253 53.1193 139.009 53.1747 138.782 53.2514C138.557 53.3253 138.375 53.4375 138.236 53.5881C138.1 53.7358 138.032 53.9375 138.032 54.1932C138.032 54.5426 138.161 54.8068 138.419 54.9858C138.681 55.1619 139.012 55.25 139.412 55.25ZM148.972 49.4545L146.552 56H145.529L143.109 49.4545H144.2L146.007 54.6705H146.075L147.882 49.4545H148.972ZM152.57 56.1364C151.939 56.1364 151.395 55.9972 150.938 55.7188C150.483 55.4375 150.132 55.0455 149.885 54.5426C149.641 54.0369 149.519 53.4489 149.519 52.7784C149.519 52.108 149.641 51.517 149.885 51.0057C150.132 50.4915 150.476 50.0909 150.916 49.804C151.36 49.5142 151.877 49.3693 152.468 49.3693C152.808 49.3693 153.145 49.4261 153.477 49.5398C153.81 49.6534 154.112 49.8381 154.385 50.0938C154.658 50.3466 154.875 50.6818 155.037 51.0994C155.199 51.517 155.28 52.0312 155.28 52.642V53.0682H150.235V52.1989H154.257C154.257 51.8295 154.183 51.5 154.036 51.2102C153.891 50.9205 153.683 50.6918 153.414 50.5241C153.146 50.3565 152.831 50.2727 152.468 50.2727C152.067 50.2727 151.72 50.3722 151.428 50.571C151.138 50.767 150.915 51.0227 150.759 51.3381C150.602 51.6534 150.524 51.9915 150.524 52.3523V52.9318C150.524 53.4261 150.61 53.8452 150.78 54.1889C150.953 54.5298 151.193 54.7898 151.5 54.9688C151.807 55.1449 152.164 55.233 152.57 55.233C152.834 55.233 153.073 55.196 153.286 55.1222C153.502 55.0455 153.688 54.9318 153.844 54.7812C154 54.6278 154.121 54.4375 154.206 54.2102L155.178 54.483C155.075 54.8125 154.904 55.1023 154.662 55.3523C154.421 55.5994 154.122 55.7926 153.767 55.9318C153.412 56.0682 153.013 56.1364 152.57 56.1364ZM159.041 56.1364C158.496 56.1364 158.014 55.9986 157.597 55.723C157.179 55.4446 156.853 55.0526 156.617 54.5469C156.381 54.0384 156.263 53.4375 156.263 52.7443C156.263 52.0568 156.381 51.4602 156.617 50.9545C156.853 50.4489 157.181 50.0582 157.601 49.7827C158.022 49.5071 158.507 49.3693 159.058 49.3693C159.485 49.3693 159.821 49.4403 160.068 49.5824C160.318 49.7216 160.509 49.8807 160.639 50.0597C160.773 50.2358 160.877 50.3807 160.951 50.4943H161.036V47.2727H162.041V56H161.07V54.9943H160.951C160.877 55.1136 160.772 55.2642 160.635 55.446C160.499 55.625 160.304 55.7855 160.051 55.9276C159.799 56.0668 159.462 56.1364 159.041 56.1364ZM159.178 55.233C159.581 55.233 159.922 55.1278 160.201 54.9176C160.479 54.7045 160.691 54.4105 160.835 54.0355C160.98 53.6577 161.053 53.2216 161.053 52.7273C161.053 52.2386 160.982 51.8111 160.84 51.4446C160.698 51.0753 160.487 50.7884 160.209 50.5838C159.931 50.3764 159.587 50.2727 159.178 50.2727C158.752 50.2727 158.397 50.3821 158.112 50.6009C157.831 50.8168 157.62 51.1108 157.478 51.483C157.338 51.8523 157.269 52.267 157.269 52.7273C157.269 53.1932 157.34 53.6165 157.482 53.9972C157.627 54.375 157.84 54.6761 158.121 54.9006C158.405 55.1222 158.757 55.233 159.178 55.233Z" fill="#8D7B7B"/>
<path d="M240.5 28C240.5 29.0609 240.078 30.0783 239.328 30.8284C238.578 31.5786 237.56 32 236.5 32C235.439 32 234.421 31.5786 233.671 30.8284C232.921 30.0783 232.5 29.0609 232.5 28M228.133 27.4014L227.433 35.8014C227.282 37.6059 227.207 38.5082 227.512 39.2042C227.78 39.8157 228.245 40.3204 228.832 40.6382C229.5 41 230.405 41 232.216 41H240.783C242.594 41 243.499 41 244.167 40.6382C244.755 40.3204 245.219 39.8157 245.487 39.2042C245.792 38.5082 245.717 37.6059 245.566 35.8014L244.866 27.4014C244.737 25.8488 244.672 25.0724 244.328 24.4849C244.026 23.9674 243.575 23.5526 243.034 23.2938C242.42 23 241.641 23 240.083 23L232.916 23C231.358 23 230.579 23 229.965 23.2938C229.424 23.5526 228.973 23.9674 228.671 24.4849C228.327 25.0724 228.262 25.8487 228.133 27.4014Z" stroke="black" stroke-opacity="0.6" stroke-width="2" stroke-linecap="round" stroke-linejoin="round"/>
<path d="M232.08 50H231.023C230.96 49.696 230.851 49.429 230.695 49.1989C230.541 48.9688 230.354 48.7756 230.132 48.6193C229.913 48.4602 229.67 48.3409 229.403 48.2614C229.136 48.1818 228.858 48.142 228.568 48.142C228.04 48.142 227.561 48.2756 227.132 48.5426C226.706 48.8097 226.366 49.2031 226.114 49.723C225.864 50.2429 225.739 50.8807 225.739 51.6364C225.739 52.392 225.864 53.0298 226.114 53.5497C226.366 54.0696 226.706 54.4631 227.132 54.7301C227.561 54.9972 228.04 55.1307 228.568 55.1307C228.858 55.1307 229.136 55.0909 229.403 55.0114C229.67 54.9318 229.913 54.8139 230.132 54.6577C230.354 54.4986 230.541 54.304 230.695 54.0739C230.851 53.8409 230.96 53.5739 231.023 53.2727H232.08C232 53.7187 231.855 54.1179 231.645 54.4702C231.435 54.8224 231.173 55.1222 230.861 55.3693C230.548 55.6136 230.197 55.7997 229.808 55.9276C229.422 56.0554 229.009 56.1193 228.568 56.1193C227.824 56.1193 227.162 55.9375 226.582 55.5739C226.003 55.2102 225.547 54.6932 225.214 54.0227C224.882 53.3523 224.716 52.5568 224.716 51.6364C224.716 50.7159 224.882 49.9205 225.214 49.25C225.547 48.5795 226.003 48.0625 226.582 47.6989C227.162 47.3352 227.824 47.1534 228.568 47.1534C229.009 47.1534 229.422 47.2173 229.808 47.3452C230.197 47.473 230.548 47.6605 230.861 47.9077C231.173 48.152 231.435 48.4503 231.645 48.8026C231.855 49.152 232 49.5511 232.08 50ZM235.337 56.1534C234.922 56.1534 234.546 56.0753 234.208 55.919C233.87 55.7599 233.601 55.5312 233.402 55.233C233.204 54.9318 233.104 54.5682 233.104 54.142C233.104 53.767 233.178 53.4631 233.326 53.2301C233.473 52.9943 233.671 52.8097 233.918 52.6761C234.165 52.5426 234.438 52.4432 234.736 52.3778C235.037 52.3097 235.34 52.2557 235.644 52.2159C236.042 52.1648 236.364 52.1264 236.611 52.1009C236.861 52.0724 237.043 52.0256 237.157 51.9602C237.273 51.8949 237.331 51.7812 237.331 51.6193V51.5852C237.331 51.1648 237.216 50.8381 236.986 50.6051C236.759 50.3722 236.414 50.2557 235.951 50.2557C235.471 50.2557 235.094 50.3608 234.821 50.571C234.549 50.7812 234.357 51.0057 234.246 51.2443L233.292 50.9034C233.462 50.5057 233.689 50.196 233.973 49.9744C234.26 49.75 234.573 49.5937 234.911 49.5057C235.252 49.4148 235.587 49.3693 235.917 49.3693C236.127 49.3693 236.368 49.3949 236.641 49.446C236.917 49.4943 237.182 49.5952 237.438 49.7486C237.696 49.902 237.911 50.1335 238.081 50.4432C238.252 50.7528 238.337 51.1676 238.337 51.6875V56H237.331V55.1136H237.28C237.212 55.2557 237.098 55.4077 236.939 55.5696C236.78 55.7315 236.569 55.8693 236.304 55.983C236.04 56.0966 235.718 56.1534 235.337 56.1534ZM235.49 55.25C235.888 55.25 236.223 55.1719 236.496 55.0156C236.772 54.8594 236.979 54.6577 237.118 54.4105C237.26 54.1634 237.331 53.9034 237.331 53.6307V52.7102C237.289 52.7614 237.195 52.8082 237.05 52.8509C236.908 52.8906 236.743 52.9261 236.556 52.9574C236.371 52.9858 236.191 53.0114 236.015 53.0341C235.841 53.054 235.701 53.071 235.593 53.0852C235.331 53.1193 235.087 53.1747 234.86 53.2514C234.635 53.3253 234.454 53.4375 234.314 53.5881C234.178 53.7358 234.11 53.9375 234.11 54.1932C234.11 54.5426 234.239 54.8068 234.498 54.9858C234.759 55.1619 235.09 55.25 235.49 55.25ZM239.933 56V49.4545H240.904V50.4432H240.972C241.092 50.1193 241.308 49.8565 241.62 49.6548C241.933 49.4531 242.285 49.3523 242.677 49.3523C242.751 49.3523 242.843 49.3537 242.954 49.3565C243.065 49.3594 243.149 49.3636 243.205 49.3693V50.392C243.171 50.3835 243.093 50.3707 242.971 50.3537C242.852 50.3338 242.725 50.3239 242.592 50.3239C242.274 50.3239 241.989 50.3906 241.739 50.5241C241.492 50.6548 241.296 50.8366 241.151 51.0696C241.009 51.2997 240.938 51.5625 240.938 51.858V56H239.933ZM247.414 49.4545V50.3068H244.022V49.4545H247.414ZM245.011 47.8864H246.017V54.125C246.017 54.4091 246.058 54.6222 246.14 54.7642C246.225 54.9034 246.333 54.9972 246.464 55.0455C246.597 55.0909 246.738 55.1136 246.886 55.1136C246.997 55.1136 247.088 55.108 247.159 55.0966C247.23 55.0824 247.286 55.071 247.329 55.0625L247.534 55.9659C247.465 55.9915 247.37 56.017 247.248 56.0426C247.126 56.071 246.971 56.0852 246.784 56.0852C246.499 56.0852 246.221 56.0241 245.948 55.902C245.678 55.7798 245.454 55.5938 245.275 55.3438C245.099 55.0938 245.011 54.7784 245.011 54.3977V47.8864Z" fill="#8D7B7B"/>
<path d="M329.395 39.3711L329.98 40.6856C330.153 41.0768 330.437 41.4093 330.796 41.6426C331.155 41.8759 331.574 42.0001 332.002 42C332.43 42.0001 332.849 41.8759 333.208 41.6426C333.567 41.4093 333.85 41.0768 334.024 40.6856L334.608 39.3711C334.816 38.9047 335.166 38.5159 335.608 38.26C336.053 38.0034 336.568 37.8941 337.078 37.9478L338.508 38.1C338.934 38.145 339.364 38.0656 339.745 37.8713C340.127 37.6771 340.443 37.3763 340.657 37.0056C340.872 36.635 340.974 36.2103 340.951 35.7829C340.929 35.3555 340.783 34.9438 340.531 34.5978L339.684 33.4344C339.383 33.0171 339.221 32.5148 339.224 32C339.224 31.4866 339.386 30.9864 339.688 30.5711L340.535 29.4078C340.787 29.0618 340.933 28.6501 340.956 28.2227C340.978 27.7953 340.876 27.3705 340.662 27C340.448 26.6292 340.131 26.3285 339.75 26.1342C339.368 25.94 338.939 25.8605 338.513 25.9056L337.083 26.0578C336.572 26.1114 336.058 26.0021 335.613 25.7456C335.17 25.4883 334.82 25.0974 334.613 24.6289L334.024 23.3144C333.85 22.9232 333.567 22.5907 333.208 22.3574C332.849 22.1241 332.43 21.9999 332.002 22C331.574 21.9999 331.155 22.1241 330.796 22.3574C330.437 22.5907 330.153 22.9232 329.98 23.3144L329.395 24.6289C329.188 25.0974 328.838 25.4883 328.395 25.7456C327.95 26.0021 327.436 26.1114 326.925 26.0578L325.491 25.9056C325.065 25.8605 324.635 25.94 324.254 26.1342C323.873 26.3285 323.556 26.6292 323.342 27C323.128 27.3705 323.026 27.7953 323.048 28.2227C323.071 28.6501 323.217 29.0618 323.468 29.4078L324.315 30.5711C324.617 30.9864 324.78 31.4866 324.78 32C324.78 32.5134 324.617 33.0137 324.315 33.4289L323.468 34.5922C323.217 34.9382 323.071 35.3499 323.048 35.7773C323.026 36.2047 323.128 36.6295 323.342 37C323.556 37.3706 323.873 37.6712 324.254 37.8654C324.636 38.0596 325.065 38.1392 325.491 38.0944L326.921 37.9422C327.431 37.8886 327.946 37.9979 328.391 38.2544C328.835 38.511 329.187 38.902 329.395 39.3711Z" stroke="black" stroke-opacity="0.6" stroke-width="2" stroke-linecap="round" stroke-linejoin="round"/>
<path d="M332 35C333.657 35 335 33.6569 335 32C335 30.3431 333.657 29 332 29C330.343 29 329 30.3431 329 32C329 33.6569 330.343 35 332 35Z" stroke="black" stroke-opacity="0.6" stroke-width="2" stroke-linecap="round" stroke-linejoin="round"/>
<path d="M314.83 49.4545C314.778 49.0227 314.571 48.6875 314.207 48.4489C313.844 48.2102 313.398 48.0909 312.869 48.0909C312.483 48.0909 312.145 48.1534 311.855 48.2784C311.568 48.4034 311.344 48.5753 311.182 48.794C311.023 49.0128 310.943 49.2614 310.943 49.5398C310.943 49.7727 310.999 49.973 311.109 50.1406C311.223 50.3054 311.368 50.4432 311.544 50.554C311.72 50.6619 311.905 50.7514 312.098 50.8224C312.291 50.8906 312.469 50.946 312.631 50.9886L313.517 51.2273C313.744 51.2869 313.997 51.3693 314.276 51.4744C314.557 51.5795 314.825 51.723 315.081 51.9048C315.339 52.0838 315.553 52.3139 315.72 52.5952C315.888 52.8764 315.972 53.2216 315.972 53.6307C315.972 54.1023 315.848 54.5284 315.601 54.9091C315.357 55.2898 314.999 55.5923 314.527 55.8168C314.058 56.0412 313.489 56.1534 312.818 56.1534C312.193 56.1534 311.652 56.0526 311.195 55.8509C310.74 55.6491 310.382 55.3679 310.121 55.0071C309.862 54.6463 309.716 54.2273 309.682 53.75H310.773C310.801 54.0795 310.912 54.3523 311.105 54.5682C311.301 54.7812 311.548 54.9403 311.847 55.0455C312.148 55.1477 312.472 55.1989 312.818 55.1989C313.222 55.1989 313.584 55.1335 313.905 55.0028C314.226 54.8693 314.48 54.6847 314.668 54.4489C314.855 54.2102 314.949 53.9318 314.949 53.6136C314.949 53.3239 314.868 53.0881 314.706 52.9062C314.544 52.7244 314.331 52.5767 314.067 52.4631C313.803 52.3494 313.517 52.25 313.21 52.1648L312.136 51.858C311.455 51.6619 310.915 51.3821 310.517 51.0185C310.119 50.6548 309.92 50.179 309.92 49.5909C309.92 49.1023 310.053 48.6761 310.317 48.3125C310.584 47.946 310.942 47.6619 311.391 47.4602C311.842 47.2557 312.347 47.1534 312.903 47.1534C313.466 47.1534 313.966 47.2543 314.403 47.456C314.841 47.6548 315.188 47.9276 315.443 48.2741C315.702 48.6207 315.838 49.0142 315.852 49.4545H314.83ZM320.077 56.1364C319.446 56.1364 318.902 55.9972 318.445 55.7188C317.99 55.4375 317.64 55.0455 317.392 54.5426C317.148 54.0369 317.026 53.4489 317.026 52.7784C317.026 52.108 317.148 51.517 317.392 51.0057C317.64 50.4915 317.983 50.0909 318.424 49.804C318.867 49.5142 319.384 49.3693 319.975 49.3693C320.316 49.3693 320.652 49.4261 320.985 49.5398C321.317 49.6534 321.62 49.8381 321.892 50.0938C322.165 50.3466 322.383 50.6818 322.544 51.0994C322.706 51.517 322.787 52.0312 322.787 52.642V53.0682H317.742V52.1989H321.765C321.765 51.8295 321.691 51.5 321.543 51.2102C321.398 50.9205 321.191 50.6918 320.921 50.5241C320.654 50.3565 320.338 50.2727 319.975 50.2727C319.574 50.2727 319.228 50.3722 318.935 50.571C318.645 50.767 318.422 51.0227 318.266 51.3381C318.11 51.6534 318.032 51.9915 318.032 52.3523V52.9318C318.032 53.4261 318.117 53.8452 318.287 54.1889C318.461 54.5298 318.701 54.7898 319.008 54.9688C319.314 55.1449 319.671 55.233 320.077 55.233C320.341 55.233 320.58 55.196 320.793 55.1222C321.009 55.0455 321.195 54.9318 321.351 54.7812C321.508 54.6278 321.628 54.4375 321.713 54.2102L322.685 54.483C322.583 54.8125 322.411 55.1023 322.169 55.3523C321.928 55.5994 321.63 55.7926 321.275 55.9318C320.919 56.0682 320.52 56.1364 320.077 56.1364ZM326.924 49.4545V50.3068H323.532V49.4545H326.924ZM324.52 47.8864H325.526V54.125C325.526 54.4091 325.567 54.6222 325.65 54.7642C325.735 54.9034 325.843 54.9972 325.973 55.0455C326.107 55.0909 326.248 55.1136 326.395 55.1136C326.506 55.1136 326.597 55.108 326.668 55.0966C326.739 55.0824 326.796 55.071 326.839 55.0625L327.043 55.9659C326.975 55.9915 326.88 56.017 326.758 56.0426C326.635 56.071 326.481 56.0852 326.293 56.0852C326.009 56.0852 325.731 56.0241 325.458 55.902C325.188 55.7798 324.964 55.5938 324.785 55.3438C324.608 55.0938 324.52 54.7784 324.52 54.3977V47.8864ZM331.043 49.4545V50.3068H327.651V49.4545H331.043ZM328.64 47.8864H329.645V54.125C329.645 54.4091 329.687 54.6222 329.769 54.7642C329.854 54.9034 329.962 54.9972 330.093 55.0455C330.226 55.0909 330.367 55.1136 330.515 55.1136C330.626 55.1136 330.716 55.108 330.787 55.0966C330.858 55.0824 330.915 55.071 330.958 55.0625L331.162 55.9659C331.094 55.9915 330.999 56.017 330.877 56.0426C330.755 56.071 330.6 56.0852 330.412 56.0852C330.128 56.0852 329.85 56.0241 329.577 55.902C329.307 55.7798 329.083 55.5938 328.904 55.3438C328.728 55.0938 328.64 54.7784 328.64 54.3977V47.8864ZM332.316 56V49.4545H333.322V56H332.316ZM332.827 48.3636C332.631 48.3636 332.462 48.2969 332.32 48.1634C332.181 48.0298 332.111 47.8693 332.111 47.6818C332.111 47.4943 332.181 47.3338 332.32 47.2003C332.462 47.0668 332.631 47 332.827 47C333.023 47 333.191 47.0668 333.33 47.2003C333.472 47.3338 333.543 47.4943 333.543 47.6818C333.543 47.8693 333.472 48.0298 333.33 48.1634C333.191 48.2969 333.023 48.3636 332.827 48.3636ZM335.929 52.0625V56H334.924V49.4545H335.895V50.4773H335.98C336.134 50.1449 336.367 49.8778 336.679 49.6761C336.992 49.4716 337.395 49.3693 337.889 49.3693C338.333 49.3693 338.72 49.4602 339.053 49.642C339.385 49.821 339.644 50.0938 339.828 50.4602C340.013 50.8239 340.105 51.2841 340.105 51.8409V56H339.1V51.9091C339.1 51.3949 338.966 50.9943 338.699 50.7074C338.432 50.4176 338.066 50.2727 337.6 50.2727C337.279 50.2727 336.992 50.3423 336.739 50.4815C336.489 50.6207 336.291 50.8239 336.147 51.0909C336.002 51.358 335.929 51.6818 335.929 52.0625ZM344.345 58.5909C343.859 58.5909 343.442 58.5284 343.092 58.4034C342.743 58.2812 342.452 58.1193 342.219 57.9176C341.989 57.7188 341.805 57.5057 341.669 57.2784L342.47 56.7159C342.561 56.8352 342.676 56.9716 342.815 57.125C342.955 57.2812 343.145 57.4162 343.386 57.5298C343.631 57.6463 343.95 57.7045 344.345 57.7045C344.874 57.7045 345.31 57.5767 345.653 57.321C345.997 57.0653 346.169 56.6648 346.169 56.1193V54.7898H346.084C346.01 54.9091 345.905 55.0568 345.768 55.233C345.635 55.4062 345.442 55.5611 345.189 55.6974C344.939 55.831 344.601 55.8977 344.175 55.8977C343.646 55.8977 343.172 55.7727 342.751 55.5227C342.334 55.2727 342.003 54.9091 341.759 54.4318C341.517 53.9545 341.396 53.375 341.396 52.6932C341.396 52.0227 341.514 51.4389 341.75 50.9418C341.986 50.4418 342.314 50.0554 342.734 49.7827C343.155 49.5071 343.641 49.3693 344.192 49.3693C344.618 49.3693 344.956 49.4403 345.206 49.5824C345.459 49.7216 345.652 49.8807 345.785 50.0597C345.922 50.2358 346.027 50.3807 346.101 50.4943H346.203V49.4545H347.175V56.1875C347.175 56.75 347.047 57.2074 346.791 57.5597C346.538 57.9148 346.197 58.1747 345.768 58.3395C345.342 58.5071 344.868 58.5909 344.345 58.5909ZM344.311 54.9943C344.714 54.9943 345.055 54.902 345.334 54.7173C345.612 54.5327 345.824 54.267 345.969 53.9205C346.114 53.5739 346.186 53.1591 346.186 52.6761C346.186 52.2045 346.115 51.7884 345.973 51.4276C345.831 51.0668 345.621 50.7841 345.342 50.5795C345.064 50.375 344.72 50.2727 344.311 50.2727C343.885 50.2727 343.53 50.3807 343.246 50.5966C342.964 50.8125 342.753 51.1023 342.611 51.4659C342.472 51.8295 342.402 52.233 342.402 52.6761C342.402 53.1307 342.473 53.5327 342.615 53.8821C342.76 54.2287 342.973 54.5014 343.254 54.7003C343.538 54.8963 343.891 54.9943 344.311 54.9943ZM353.412 50.9205L352.509 51.1761C352.452 51.0256 352.368 50.8793 352.257 50.7372C352.149 50.5923 352.001 50.473 351.814 50.3793C351.626 50.2855 351.386 50.2386 351.094 50.2386C350.693 50.2386 350.359 50.331 350.092 50.5156C349.828 50.6974 349.696 50.929 349.696 51.2102C349.696 51.4602 349.787 51.6577 349.969 51.8026C350.151 51.9474 350.435 52.0682 350.821 52.1648L351.793 52.4034C352.378 52.5455 352.814 52.7628 353.101 53.0554C353.388 53.3452 353.531 53.7187 353.531 54.1761C353.531 54.5511 353.423 54.8864 353.207 55.1818C352.994 55.4773 352.696 55.7102 352.313 55.8807C351.929 56.0511 351.483 56.1364 350.974 56.1364C350.307 56.1364 349.754 55.9915 349.317 55.7017C348.879 55.4119 348.602 54.9886 348.486 54.4318L349.44 54.1932C349.531 54.5455 349.703 54.8097 349.956 54.9858C350.212 55.1619 350.545 55.25 350.957 55.25C351.426 55.25 351.798 55.1506 352.074 54.9517C352.352 54.75 352.492 54.5085 352.492 54.2273C352.492 54 352.412 53.8097 352.253 53.6562C352.094 53.5 351.849 53.3835 351.52 53.3068L350.429 53.0511C349.83 52.9091 349.389 52.6889 349.108 52.3906C348.83 52.0895 348.69 51.7131 348.69 51.2614C348.69 50.892 348.794 50.5653 349.001 50.2812C349.212 49.9972 349.497 49.7741 349.858 49.6122C350.222 49.4503 350.634 49.3693 351.094 49.3693C351.742 49.3693 352.25 49.5114 352.619 49.7955C352.992 50.0795 353.256 50.4545 353.412 50.9205Z" fill="#8D7B7B"/>
<path d="M0 1H390V-1H0V1Z" fill="black" fill-opacity="0.2" mask="url(#path-1-inside-1_1_81)"/>
</svg>
